<svg id="visual" viewBox="0 0 1080 2400" width="1080" height="2400" xmlns="http://www.w3.org/2000/svg" xmlns:xlink="http://www.w3.org/1999/xlink" version="1.1"><rect x="0" y="0" width="1080" height="2400" fill="#1a1f24"></rect><path d="M0 1561L25.7 1538.5C51.3 1516 102.7 1471 154.2 1497.7C205.7 1524.3 257.3 1622.7 308.8 1633.3C360.3 1644 411.7 1567 463 1553.3C514.3 1539.7 565.7 1589.3 617 1622.8C668.3 1656.3 719.7 1673.7 771.2 1653.3C822.7 1633 874.3 1575 925.8 1553.8C977.3 1532.7 1028.7 1548.3 1054.3 1556.2L1080 1564L1080 2401L1054.3 2401C1028.7 2401 977.3 2401 925.8 2401C874.3 2401 822.7 2401 771.2 2401C719.7 2401 668.3 2401 617 2401C565.7 2401 514.3 2401 463 2401C411.7 2401 360.3 2401 308.8 2401C257.3 2401 205.7 2401 154.2 2401C102.7 2401 51.3 2401 25.7 2401L0 2401Z" fill="#4dbbef"></path><path d="M0 1570L25.7 1596C51.3 1622 102.7 1674 154.2 1676.2C205.7 1678.3 257.3 1630.7 308.8 1626.8C360.3 1623 411.7 1663 463 1684.8C514.3 1706.7 565.7 1710.3 617 1726C668.3 1741.7 719.7 1769.3 771.2 1745.5C822.7 1721.7 874.3 1646.3 925.8 1607.2C977.3 1568 1028.7 1565 1054.3 1563.5L1080 1562L1080 2401L1054.3 2401C1028.7 2401 977.3 2401 925.8 2401C874.3 2401 822.7 2401 771.2 2401C719.7 2401 668.3 2401 617 2401C565.7 2401 514.3 2401 463 2401C411.7 2401 360.3 2401 308.8 2401C257.3 2401 205.7 2401 154.2 2401C102.7 2401 51.3 2401 25.7 2401L0 2401Z" fill="#42acde"></path><path d="M0 1959L25.7 1957C51.3 1955 102.7 1951 154.2 1954.2C205.7 1957.3 257.3 1967.7 308.8 1963.7C360.3 1959.7 411.7 1941.3 463 1894.7C514.3 1848 565.7 1773 617 1767C668.3 1761 719.7 1824 771.2 1860C822.7 1896 874.3 1905 925.8 1891.3C977.3 1877.7 1028.7 1841.3 1054.3 1823.2L1080 1805L1080 2401L1054.3 2401C1028.7 2401 977.3 2401 925.8 2401C874.3 2401 822.7 2401 771.2 2401C719.7 2401 668.3 2401 617 2401C565.7 2401 514.3 2401 463 2401C411.7 2401 360.3 2401 308.8 2401C257.3 2401 205.7 2401 154.2 2401C102.7 2401 51.3 2401 25.7 2401L0 2401Z" fill="#379ccd"></path><path d="M0 1947L25.7 1952.8C51.3 1958.7 102.7 1970.3 154.2 1954.2C205.7 1938 257.3 1894 308.8 1905.7C360.3 1917.3 411.7 1984.7 463 2018.8C514.3 2053 565.7 2054 617 2033C668.3 2012 719.7 1969 771.2 1969.3C822.7 1969.7 874.3 2013.3 925.8 2020.2C977.3 2027 1028.7 1997 1054.3 1982L1080 1967L1080 2401L1054.3 2401C1028.7 2401 977.3 2401 925.8 2401C874.3 2401 822.7 2401 771.2 2401C719.7 2401 668.3 2401 617 2401C565.7 2401 514.3 2401 463 2401C411.7 2401 360.3 2401 308.8 2401C257.3 2401 205.7 2401 154.2 2401C102.7 2401 51.3 2401 25.7 2401L0 2401Z" fill="#2b8dbd"></path><path d="M0 2067L25.7 2059C51.3 2051 102.7 2035 154.2 2037.7C205.7 2040.3 257.3 2061.7 308.8 2063.8C360.3 2066 411.7 2049 463 2058.5C514.3 2068 565.7 2104 617 2115C668.3 2126 719.7 2112 771.2 2118.3C822.7 2124.7 874.3 2151.3 925.8 2139C977.3 2126.7 1028.7 2075.3 1054.3 2049.7L1080 2024L1080 2401L1054.3 2401C1028.7 2401 977.3 2401 925.8 2401C874.3 2401 822.7 2401 771.2 2401C719.7 2401 668.3 2401 617 2401C565.7 2401 514.3 2401 463 2401C411.7 2401 360.3 2401 308.8 2401C257.3 2401 205.7 2401 154.2 2401C102.7 2401 51.3 2401 25.7 2401L0 2401Z" fill="#1e7fad"></path><path d="M0 2310L25.7 2305.5C51.3 2301 102.7 2292 154.2 2266.5C205.7 2241 257.3 2199 308.8 2189.7C360.3 2180.3 411.7 2203.7 463 2221.5C514.3 2239.3 565.7 2251.7 617 2246.7C668.3 2241.7 719.7 2219.3 771.2 2216C822.7 2212.7 874.3 2228.3 925.8 2238C977.3 2247.7 1028.7 2251.3 1054.3 2253.2L1080 2255L1080 2401L1054.3 2401C1028.7 2401 977.3 2401 925.8 2401C874.3 2401 822.7 2401 771.2 2401C719.7 2401 668.3 2401 617 2401C565.7 2401 514.3 2401 463 2401C411.7 2401 360.3 2401 308.8 2401C257.3 2401 205.7 2401 154.2 2401C102.7 2401 51.3 2401 25.7 2401L0 2401Z" fill="#0d709d"></path></svg>